<svg width="18" height="18" viewBox="0 0 18 18" fill="none" xmlns="http://www.w3.org/2000/svg">
<path id="Combined-Shape" d="M16.5902 15.8006L16.5899 15.8003L14.4894 13.604C15.5988 12.2275 16.267 10.4512 16.267 8.517C16.267 4.17439 12.8923 0.614355 8.70886 0.614355C4.52548 0.614355 1.15 4.17434 1.15 8.517C1.15 12.8596 4.52544 16.4204 8.70886 16.4204C10.3801 16.4204 11.9252 15.8503 13.1759 14.8891L15.2995 17.1079L15.3 17.1084C15.4754 17.291 15.709 17.3858 15.9447 17.3858C16.1801 17.3858 16.4157 17.2916 16.5917 17.1052C16.9374 16.742 16.9353 16.1622 16.5902 15.8006ZM2.96031 8.517C2.96031 5.17129 5.55457 2.47773 8.70886 2.47773C11.8624 2.47773 14.4567 5.17126 14.4567 8.517C14.4567 11.8628 11.8623 14.557 8.70886 14.557C5.55463 14.557 2.96031 11.8628 2.96031 8.517Z" fill="white" stroke="white" stroke-width="0.7"/>
</svg>
